<?xml version="1.0" standalone="no"?>
<!DOCTYPE svg PUBLIC "-//W3C//DTD SVG 20010904//EN"
 "http://www.w3.org/TR/2001/REC-SVG-20010904/DTD/svg10.dtd">
<svg version="1.0" xmlns="http://www.w3.org/2000/svg"
 width="500.000000pt" height="500.000000pt" viewBox="0 0 500.000000 500.000000"
 preserveAspectRatio="xMidYMid meet">

<g transform="translate(0.000000,500.000000) scale(0.100000,-0.100000)"
fill="#000000" stroke="none">
<path d="M2075 3145 c-83 -18 -199 -66 -304 -125 -93 -52 -139 -85 -131 -93 3
-2 84 -66 180 -142 96 -76 182 -144 190 -151 13 -10 29 -1 105 57 107 83 262
164 332 174 101 13 162 -22 269 -157 30 -36 67 -76 85 -88 68 -49 163 -34 276
43 67 46 191 148 192 158 1 4 -45 41 -101 83 l-101 76 -52 -49 c-95 -90 -178
-114 -258 -77 -20 10 -85 60 -143 110 -58 51 -130 107 -160 126 -107 64 -245
85 -379 55z m70 -15 c4 -6 -5 -10 -20 -10 -15 0 -24 4 -20 10 3 6 12 10 20 10
8 0 17 -4 20 -10z m75 0 c0 -5 -6 -10 -14 -10 -8 0 -18 5 -21 10 -3 6 3 10 14
10 12 0 21 -4 21 -10z m65 0 c3 -5 -1 -10 -9 -10 -8 0 -18 5 -21 10 -3 6 1 10
9 10 8 0 18 -4 21 -10z m-223 -22 c-9 -9 -15 -9 -24 0 -9 9 -7 12 12 12 19 0
21 -3 12 -12z m-76 -23 c-10 -8 -23 -12 -28 -9 -14 9 2 24 25 24 21 -1 21 -1
3 -15z m445 -12 c13 -16 12 -17 -3 -4 -10 7 -18 15 -18 17 0 8 8 3 21 -13z
m-516 -13 c-3 -5 -13 -10 -21 -10 -8 0 -12 5 -9 10 3 6 13 10 21 10 8 0 12 -4
9 -10z m586 -27 l24 -27 -32 23 c-33 23 -40 31 -25 31 5 0 19 -12 33 -27z
m-651 -2 c0 -11 -31 -24 -39 -16 -3 3 1 10 9 15 19 12 30 12 30 1z m61 -18
c13 -16 12 -17 -3 -4 -10 7 -18 15 -18 17 0 8 8 3 21 -13z m-131 -20 c0 -5
-19 -19 -43 -33 -55 -33 -57 -33 -57 -22 0 6 19 22 43 36 44 27 57 31 57 19z
m790 -13 c6 -11 8 -20 6 -20 -3 0 -10 9 -16 20 -6 11 -8 20 -6 20 3 0 10 -9
16 -20z m500 -30 c0 -5 -5 -10 -11 -10 -5 0 -7 5 -4 10 3 6 8 10 11 10 2 0 4
-4 4 -10z m-449 -17 c13 -16 12 -17 -3 -4 -17 13 -22 21 -14 21 2 0 10 -8 17
-17z m-322 -27 c9 -11 9 -16 -1 -22 -7 -4 -10 -4 -6 1 4 4 3 14 -3 22 -6 7 -9
13 -6 13 2 0 10 -6 16 -14z m741 10 c0 -3 -4 -8 -10 -11 -5 -3 -10 -1 -10 4 0
6 5 11 10 11 6 0 10 -2 10 -4z m-599 -19 c-1 -12 -15 -9 -19 4 -3 6 1 10 8 8
6 -3 11 -8 11 -12z m64 3 c3 -5 2 -10 -4 -10 -5 0 -13 5 -16 10 -3 6 -2 10 4
10 5 0 13 -4 16 -10z m-115 -20 c0 -5 -7 -10 -15 -10 -8 0 -15 5 -15 10 0 6 7
10 15 10 8 0 15 -4 15 -10z m191 -7 c13 -16 12 -17 -3 -4 -17 13 -22 21 -14
21 2 0 10 -8 17 -17z m419 7 c0 -5 -5 -10 -11 -10 -5 0 -7 5 -4 10 3 6 8 10
11 10 2 0 4 -4 4 -10z m-660 -20 c0 -11 -30 -21 -42 -14 -7 5 -4 12 7 20 18
13 35 10 35 -6z m391 -17 c13 -16 12 -17 -3 -4 -10 7 -18 15 -18 17 0 8 8 3
21 -13z m229 7 c0 -5 -5 -10 -11 -10 -5 0 -7 5 -4 10 3 6 8 10 11 10 2 0 4 -4
4 -10z m-690 -20 c0 -12 -28 -25 -36 -17 -9 9 6 27 22 27 8 0 14 -5 14 -10z
m515 -10 c3 -5 2 -10 -4 -10 -5 0 -13 5 -16 10 -3 6 -2 10 4 10 5 0 13 -4 16
-10z m75 -10 c0 -5 -4 -10 -9 -10 -6 0 -13 5 -16 10 -3 6 1 10 9 10 9 0 16 -4
16 -10z m380 6 c0 -3 -4 -8 -10 -11 -5 -3 -10 -1 -10 4 0 6 5 11 10 11 6 0 10
-2 10 -4z m-1053 -43 c-9 -9 -20 -12 -28 -8 -9 6 -8 11 6 21 23 17 42 6 22
-13z m-62 -32 c6 -11 -33 -36 -42 -27 -7 7 16 36 28 36 4 0 10 -4 14 -9z m-65
-50 c0 -5 -6 -14 -14 -20 -11 -9 -16 -9 -21 0 -4 6 -1 15 6 20 18 11 29 11 29
0z m720 -21 c6 -11 8 -20 6 -20 -3 0 -10 9 -16 20 -6 11 -8 20 -6 20 3 0 10
-9 16 -20z m255 -10 c-3 -5 -12 -10 -18 -10 -7 0 -6 4 3 10 19 12 23 12 15 0z
m-184 -37 c13 -15 12 -15 -8 -4 -24 12 -29 21 -14 21 5 0 15 -7 22 -17z m119
7 c0 -5 -8 -10 -17 -10 -15 0 -16 2 -3 10 19 12 20 12 20 0z m-60 -10 c13 -8
13 -10 -2 -10 -9 0 -20 5 -23 10 -8 13 5 13 25 0z"/>
<path d="M3255 2509 c-37 -11 -55 -34 -55 -71 0 -18 -5 -28 -15 -28 -9 0 -15
-9 -15 -25 0 -16 6 -25 15 -25 12 0 15 -18 15 -105 l0 -105 35 0 35 0 0 105 0
105 35 0 c31 0 35 3 35 25 0 22 -4 25 -34 25 -38 0 -49 10 -40 35 5 12 16 16
41 13 29 -3 34 -1 40 19 3 13 4 25 2 27 -11 10 -68 13 -94 5z"/>
<path d="M1729 2494 c-17 -21 0 -49 31 -49 27 0 46 25 37 49 -8 21 -51 21 -68
0z"/>
<path d="M2804 2496 c-12 -31 0 -51 31 -51 27 0 30 3 30 30 0 25 -4 30 -28 33
-17 2 -29 -2 -33 -12z"/>
<path d="M1515 2490 c-66 -20 -105 -84 -105 -170 0 -60 18 -106 54 -140 22
-20 40 -25 96 -28 69 -4 70 -4 105 31 42 42 44 60 10 75 -23 11 -27 9 -37 -12
-13 -31 -56 -49 -92 -40 -44 11 -66 49 -66 116 0 52 3 63 29 89 38 37 82 39
117 3 25 -24 27 -24 50 -9 20 13 22 19 14 35 -22 41 -116 68 -175 50z"/>
<path d="M1730 2280 l0 -130 30 0 30 0 0 130 0 130 -30 0 -30 0 0 -130z"/>
<path d="M1847 2403 c-4 -3 -7 -62 -7 -130 l0 -123 35 0 35 0 0 85 c0 72 3 88
20 105 23 23 50 26 68 8 8 -8 12 -46 12 -105 l0 -93 35 0 35 0 0 89 c0 97 -12
146 -40 161 -32 17 -88 12 -110 -10 l-20 -20 0 20 c0 15 -7 20 -28 20 -16 0
-32 -3 -35 -7z"/>
<path d="M2164 2391 c-41 -25 -58 -69 -52 -133 4 -42 11 -57 37 -80 26 -23 40
-28 85 -28 39 0 60 6 80 21 31 25 33 35 5 49 -16 9 -24 8 -38 -4 -34 -31 -101
-11 -101 29 0 11 20 15 83 17 l82 3 -2 40 c-3 51 -19 80 -50 94 -36 17 -94 13
-129 -8z m104 -43 c26 -26 13 -38 -38 -38 -34 0 -50 4 -50 13 0 21 22 37 50
37 14 0 31 -5 38 -12z"/>
<path d="M2380 2280 l0 -130 29 0 29 0 4 91 c3 75 8 94 23 105 53 39 75 4 75
-117 l0 -79 30 0 30 0 0 83 c0 88 15 127 49 127 33 0 41 -21 41 -117 l0 -93
36 0 37 0 -5 112 c-4 101 -7 113 -27 130 -30 24 -82 23 -113 -2 -25 -19 -26
-19 -43 0 -25 27 -82 26 -112 -2 l-23 -21 0 21 c0 18 -6 22 -30 22 l-30 0 0
-130z"/>
<path d="M2800 2280 l0 -130 35 0 35 0 0 130 0 130 -35 0 -35 0 0 -130z"/>
<path d="M2920 2280 l0 -130 30 0 30 0 0 74 c0 91 11 123 45 132 45 11 55 -8
55 -112 l0 -94 36 0 36 0 -4 111 c-3 102 -5 112 -27 130 -32 26 -89 25 -118
-3 l-23 -21 0 21 c0 18 -6 22 -30 22 l-30 0 0 -130z"/>
<path d="M3385 2377 c-42 -42 -53 -97 -29 -156 19 -49 55 -71 114 -71 59 0 95
22 114 71 24 59 13 114 -29 156 -29 29 -40 33 -85 33 -45 0 -56 -4 -85 -33z
m125 -37 c24 -24 27 -86 4 -118 -10 -14 -26 -22 -44 -22 -37 0 -60 32 -60 82
0 43 27 78 60 78 11 0 29 -9 40 -20z"/>
</g>
</svg>
